<?xml version="1.0" standalone="no"?>
<!DOCTYPE svg PUBLIC "-//W3C//DTD SVG 20010904//EN"
 "http://www.w3.org/TR/2001/REC-SVG-20010904/DTD/svg10.dtd">
<svg version="1.0" xmlns="http://www.w3.org/2000/svg"
 width="700.000000pt" height="700.000000pt" viewBox="0 0 700.000000 700.000000"
 preserveAspectRatio="xMidYMid meet">
<metadata>
Created by potrace 1.14, written by Peter Selinger 2001-2017
</metadata>
<g transform="translate(0.000000,700.000000) scale(0.100000,-0.100000)"
fill="#000000" stroke="none">
<path d="M1027 5928 c-148 -21 -275 -94 -373 -213 -71 -86 -106 -163 -130
-290 -3 -16 -6 -727 -6 -1580 0 -1802 14 -1601 -121 -1773 -92 -117 -147 -189
-192 -248 -16 -21 -35 -45 -42 -51 -6 -7 -21 -29 -34 -49 -20 -33 -23 -51 -24
-158 -1 -145 6 -191 44 -271 46 -98 124 -165 238 -204 58 -20 81 -20 3108 -21
3284 0 3081 -3 3185 50 61 31 141 115 173 181 34 68 41 119 40 276 0 96 -4
128 -17 147 -14 22 -77 101 -287 361 -31 39 -67 93 -80 120 l-24 50 -1 1560
c-1 858 -4 1580 -8 1603 -34 246 -222 453 -457 503 -61 13 -4905 20 -4992 7z
m4774 -588 l86 0 0 -1525 0 -1525 -2387 0 -2386 0 0 1523 1 1522 55 5 c30 3
1065 4 2300 3 1235 -2 2284 -3 2331 -3z m-1656 -3694 c-11 -86 -52 -145 -123
-179 -29 -14 -94 -16 -513 -17 -523 0 -521 -1 -582 58 -36 34 -53 67 -61 116
-12 77 -70 71 645 71 l641 0 -7 -49z"/>
<path d="M3833 4678 c-6 -7 -24 -38 -40 -68 -17 -30 -53 -95 -82 -143 -28 -49
-51 -93 -51 -98 0 -5 -4 -9 -10 -9 -5 0 -10 -4 -10 -10 0 -5 -33 -67 -73 -137
-41 -71 -85 -148 -99 -173 -99 -176 -516 -906 -544 -952 -19 -31 -34 -60 -34
-65 0 -5 60 -43 134 -85 l133 -75 36 61 c19 34 46 81 60 106 14 25 51 90 82
145 32 55 69 120 82 145 14 25 29 50 33 55 4 6 21 35 37 65 17 30 68 120 113
200 46 80 94 165 108 190 14 25 42 74 64 109 21 34 38 64 38 66 0 1 68 121
150 265 83 144 150 266 150 270 0 7 -232 142 -256 148 -6 2 -15 -3 -21 -10z"/>
<path d="M2085 4170 l-389 -390 39 -42 c22 -23 196 -200 387 -392 l347 -350
113 112 113 112 -280 280 -280 280 280 280 279 279 -24 27 c-62 65 -188 194
-191 194 -2 0 -179 -175 -394 -390z"/>
<path d="M4415 4450 l-110 -110 280 -280 280 -280 -280 -280 -280 -280 55 -56
c30 -31 79 -81 109 -111 l53 -55 389 388 c214 214 388 392 387 395 -4 9 -764
779 -769 779 -2 0 -54 -50 -114 -110z"/>
</g>
</svg>
